# xmcd
# 
# Track frame offsets:
#     150
#     18547
#     39622
#     62827
#     83472
#     105410
#     130105
#     149332
#     173727
#     187990
#     204172
#     223475
#     243407
#     260277
#     272825
#     288862
#     307502
#     317562
#     333010
# 
# Disc length: 4660
# 
# Revision: 2
# Processed by: cddbd v1.5.2PL0 Copyright (c) Steve Scherf et al.
# Submitted via: BonkEnc v1.0
# 
DISCID=02123213
DTITLE=Compilation - the most relaxing Feel -best-
DYEAR=2004
DGENRE=New Age
TTITLE0=サラ・ブライトマン/タイム・トゥ・セイ・グッバイ(ソロ・ヴァージョン)
TTITLE1=姫神/神々の詩(ブルガリアン・ヴァージョン)
TTITLE2=東儀秀樹/New ASIA
TTITLE3=押尾コータロー/ボレロ
TTITLE4=アディエマス/世紀を越えて
TTITLE5=千住 明/ピアノ協奏曲「宿命」(ピアノ・ソロ・ヴァージョン)
TTITLE6=エニグマ/リターン・トゥ・イノセンス
TTITLE7=寺井尚子/貴婦人のタンゴ
TTITLE8=マイケル・ナイマン/楽しみを希う心(『ピアノ・レッスン』より)
TTITLE9=coba/過ぎ去りし永遠の日々
TTITLE10=坂本龍一/ザ・シェルタリング・スカイ・テーマ(ピアノ・ヴァージョン)
TTITLE11=チェン・ミン/燕になりたい
TTITLE12=amin/大きな河と小さな恋Sweet Version
TTITLE13=葉加瀬 太郎 meets フォーエバー・タンゴ/リベルタンゴ
TTITLE14=マキシム/クロアチアン・ラプソディ
TTITLE15=IZZY(イジー)/Shima-Uta
TTITLE16=ヤン・ティルセン/アメリのワルツ
TTITLE17=千住 明/君を信じて
TTITLE18=ヘイリー/アメイジング・グレイス
EXTD=YEAR: 2004/09/29
EXTT0=
EXTT1=
EXTT2=
EXTT3=
EXTT4=
EXTT5=
EXTT6=
EXTT7=
EXTT8=
EXTT9=
EXTT10=
EXTT11=
EXTT12=
EXTT13=
EXTT14=
EXTT15=
EXTT16=
EXTT17=
EXTT18=
PLAYORDER=
